<svg width="236.72728271484374" height="135.88525199140759" viewBox="0 0 350 200.90560602717744" class="looka-1j8o68f"><defs id="SvgjsDefs1192"></defs><g id="SvgjsG1193" featurekey="1p4tPl-0" transform="matrix(1.7168686861844562,0,0,1.7168686861844562,97.78453801725753,-4.29143409668756)" fill="#00adb5"><path xmlns="http://www.w3.org/2000/svg" d="M65.532,53.661c2.473-2.341,2.081-5.645-0.869-7.341L59.1,43.118c-2.95-1.697-4.723-5.797-3.941-9.109l6.699-28.398  c0.781-3.312-0.602-4.108-3.073-1.767L24.467,36.339c-2.472,2.341-2.08,5.644,0.87,7.342l5.562,3.2  c2.949,1.698,4.724,5.798,3.943,9.109l-6.701,28.398c-0.78,3.312,0.602,4.107,3.074,1.767L65.532,53.661z"></path></g><g id="SvgjsG1194" featurekey="dYASrj-0" transform="matrix(1.7590182700139363,0,0,1.7590182700139363,-0.6012319803503082,157.20490864993033)" fill="#eeeeee"><path d="M2.207 8.467 c0 -3.0273 1.7188 -3.4668 4.082 -3.4668 l0 1.5527 c-1.0645 0 -2.2168 -0.019531 -2.2168 1.9434 l0 1.8359 l2.2168 0 l0 1.4746 l-2.2168 0 l0 8.1934 l-1.8652 0 l0 -8.1934 l-1.8652 0 l0 -1.4746 l1.8652 0 l0 -1.8652 z M9.1504 8.193 c-0.66406 0 -1.2305 -0.54688 -1.2305 -1.2207 s0.56641 -1.2109 1.2305 -1.2109 c0.6543 0 1.2109 0.53711 1.2109 1.2109 s-0.55664 1.2207 -1.2109 1.2207 z M8.1934 20 l0 -9.668 l1.8848 0 l0 9.668 l-1.8848 0 z M13.4375125 20 l0 -15 l1.8848 0 l0 15 l-1.8848 0 z M27.255953124999998 14.9805 l-0.029297 0.49805 l-7.4902 0 c0.068359 2.1387 1.416 3.1738 3.0176 3.1738 c1.1523 0 2.1094 -0.625 2.5977 -1.6699 l1.6992 0.33203 c-0.68359 1.7969 -2.3145 2.8711 -4.2773 2.8711 c-2.8711 0 -4.873 -1.8555 -4.873 -5.0195 s2.0508 -5.0293 4.8145 -5.0293 c2.627 0 4.5313 1.582 4.541 4.8438 z M22.724653125 11.5625 c-1.4941 0 -2.6172 0.80078 -2.9102 2.4902 l5.5566 0 c-0.15625 -1.6797 -1.2207 -2.4902 -2.6465 -2.4902 z M38.124978125 20.18555 c-2.0703 0 -3.623 -0.91797 -3.9258 -2.6855 l1.6113 -0.45898 c0.23438 1.1523 1.1133 1.7578 2.3047 1.7578 c0.89844 0 1.8652 -0.3418 1.8359 -1.4063 c-0.029297 -1.1426 -1.3379 -1.3281 -2.8906 -1.8066 c-1.3184 -0.40039 -2.5977 -0.94727 -2.5977 -2.666 c0 -1.9141 1.5723 -2.7637 3.4766 -2.7637 c1.7773 0 3.2715 0.75195 3.584 2.5293 l-1.5137 0.37109 c-0.23438 -1.1035 -1.0938 -1.5625 -2.0605 -1.5625 c-0.85938 0 -1.748 0.35156 -1.748 1.2891 c0 1.0156 1.1426 1.25 2.3828 1.5723 c1.5137 0.38086 3.1836 0.91797 3.1836 2.959 c0 2.0801 -1.7285 2.8711 -3.6426 2.8711 z M49.15041875 10.1367 c1.9629 0 3.3203 1.1816 3.3203 3.4961 l0 6.3672 l-1.8848 0 l0 -6.0254 c0 -1.6602 -0.9375 -2.2754 -2.0508 -2.2754 c-1.2305 0 -2.334 0.74219 -2.3438 2.5879 l0 5.7129 l-1.875 0 l0 -15 l1.875 0 l0 6.5723 c0.625 -0.9082 1.6602 -1.4355 2.959 -1.4355 z M57.880878125 20.18555 c-1.5918 0 -2.959 -0.78125 -2.959 -2.6465 c0 -2.0215 1.6016 -2.6855 3.6719 -3.0469 l1.5234 -0.26367 c0.61523 -0.11719 0.87891 -0.41016 0.87891 -0.88867 c0 -1.3281 -0.99609 -1.7969 -2.0508 -1.7969 c-1.1133 0 -2.0313 0.49805 -2.1777 1.7676 l-1.6895 -0.3418 c0.3125 -1.9043 1.7285 -2.8125 3.9551 -2.8125 c1.9434 0 3.7695 0.77148 3.7695 3.3691 l0 3.916 c0 0.99609 0.2832 1.2402 0.9668 1.2402 l0.14648 0 l0 1.3184 l-0.9082 0 c-1.0156 0 -1.6797 -0.40039 -1.875 -1.2988 l-0.087891 0 c-0.77148 1.0645 -1.9824 1.4844 -3.1641 1.4844 z M58.310578125 18.6914 c1.6406 0 2.8223 -1.25 2.8223 -3.3008 l-2.5293 0.51758 c-1.2012 0.20508 -1.8555 0.60547 -1.8555 1.4844 c0 0.91797 0.69336 1.2988 1.5625 1.2988 z M68.056646875 12.011700000000001 c0.46875 -1.0254 1.6895 -1.7773 3.0762 -1.7871 l0 1.7383 c-1.9141 0 -3.0176 0.80078 -3.0176 2.9492 l0 5.0879 l-1.875 0 l0 -9.668 l1.8164 0 l0 1.6797 z M74.033184375 8.193 c-0.66406 0 -1.2305 -0.54688 -1.2305 -1.2207 s0.56641 -1.2109 1.2305 -1.2109 c0.6543 0 1.2109 0.53711 1.2109 1.2109 s-0.55664 1.2207 -1.2109 1.2207 z M73.076184375 20 l0 -9.668 l1.8848 0 l0 9.668 l-1.8848 0 z M83.085925 10.1367 c2.041 0 3.3887 1.1816 3.3887 3.3496 l0 6.5137 l-1.8848 0 l0 -6.0938 c0 -1.5918 -0.94727 -2.207 -2.041 -2.207 c-1.2891 0 -2.3438 0.78125 -2.3535 2.5879 l0 5.7129 l-1.875 0 l0 -9.668 l1.875 0 l0 1.1914 c0.625 -0.87891 1.6406 -1.3867 2.8906 -1.3867 z M96.59175 10.332 l1.8066 0 l0 9.1309 c0 3.3887 -1.8262 5.127 -4.7754 5.127 c-2.4805 0 -4.0039 -1.1035 -4.7559 -2.9688 l1.5625 -0.74219 c0.55664 1.4355 1.5625 2.1777 3.125 2.1777 c1.9727 0 2.9688 -1.3086 2.9688 -3.4766 l0 -1.6895 c-0.58594 1.0742 -1.875 1.8262 -3.3203 1.8262 c-2.4121 0 -4.4141 -1.9727 -4.4141 -4.8047 s2.0215 -4.7754 4.4336 -4.7754 c1.4746 0 2.7539 0.76172 3.3301 1.8945 z M93.63285 18.1348 c1.709 0 3.0371 -1.4746 3.0371 -3.2227 s-1.3184 -3.2227 -3.0371 -3.2227 c-1.6797 0 -3.0176 1.3672 -3.0176 3.2227 c0 1.8359 1.3574 3.2227 3.0176 3.2227 z M109.1992375 20.18555 c-1.5918 0 -2.959 -0.78125 -2.959 -2.6465 c0 -2.0215 1.6016 -2.6855 3.6719 -3.0469 l1.5234 -0.26367 c0.61523 -0.11719 0.87891 -0.41016 0.87891 -0.88867 c0 -1.3281 -0.99609 -1.7969 -2.0508 -1.7969 c-1.1133 0 -2.0313 0.49805 -2.1777 1.7676 l-1.6895 -0.3418 c0.3125 -1.9043 1.7285 -2.8125 3.9551 -2.8125 c1.9434 0 3.7695 0.77148 3.7695 3.3691 l0 3.916 c0 0.99609 0.2832 1.2402 0.9668 1.2402 l0.14648 0 l0 1.3184 l-0.9082 0 c-1.0156 0 -1.6797 -0.40039 -1.875 -1.2988 l-0.087891 0 c-0.77148 1.0645 -1.9824 1.4844 -3.1641 1.4844 z M109.6289375 18.6914 c1.6406 0 2.8223 -1.25 2.8223 -3.3008 l-2.5293 0.51758 c-1.2012 0.20508 -1.8555 0.60547 -1.8555 1.4844 c0 0.91797 0.69336 1.2988 1.5625 1.2988 z M122.76370625 10.1367 c2.4902 0 4.5313 1.9238 4.5313 5.0293 c0 3.125 -2.041 5.0391 -4.5313 5.0391 c-1.4551 0 -2.7246 -0.73242 -3.3301 -1.9043 l0 6.543 l-1.875 0 l0 -14.512 l1.8066 0 l0.048828 1.7676 c0.5957 -1.2109 1.875 -1.9629 3.3496 -1.9629 z M122.37300625 18.6035 c1.6699 0 3.0469 -1.2988 3.0469 -3.4375 c0 -2.1191 -1.377 -3.418 -3.0469 -3.418 c-1.7285 0 -3.0859 1.4551 -3.0859 3.418 c0 1.9824 1.3574 3.4375 3.0859 3.4375 z M135.087925 10.1367 c2.4902 0 4.5313 1.9238 4.5313 5.0293 c0 3.125 -2.041 5.0391 -4.5313 5.0391 c-1.4551 0 -2.7246 -0.73242 -3.3301 -1.9043 l0 6.543 l-1.875 0 l0 -14.512 l1.8066 0 l0.048828 1.7676 c0.5957 -1.2109 1.875 -1.9629 3.3496 -1.9629 z M134.697225 18.6035 c1.6699 0 3.0469 -1.2988 3.0469 -3.4375 c0 -2.1191 -1.377 -3.418 -3.0469 -3.418 c-1.7285 0 -3.0859 1.4551 -3.0859 3.418 c0 1.9824 1.3574 3.4375 3.0859 3.4375 z M142.20704375 20 l0 -15 l1.8848 0 l0 15 l-1.8848 0 z M148.408184375 8.193 c-0.66406 0 -1.2305 -0.54688 -1.2305 -1.2207 s0.56641 -1.2109 1.2305 -1.2109 c0.6543 0 1.2109 0.53711 1.2109 1.2109 s-0.55664 1.2207 -1.2109 1.2207 z M147.451184375 20 l0 -9.668 l1.8848 0 l0 9.668 l-1.8848 0 z M156.767625 20.17578 c-2.8125 0 -4.8926 -2.002 -4.8926 -5.0195 s2.0801 -5.0195 4.8926 -5.0195 c2.1875 0 3.9063 1.1914 4.4824 3.2617 l-1.748 0.26367 c-0.42969 -1.2891 -1.4746 -1.9824 -2.7539 -1.9824 c-1.7188 0 -2.998 1.3672 -2.998 3.4766 c0 2.0996 1.2793 3.4766 2.998 3.4766 c1.2793 0 2.3242 -0.69336 2.7539 -1.9824 l1.748 0.26367 c-0.57617 2.0605 -2.3242 3.2617 -4.4824 3.2617 z M165.908221875 20.18555 c-1.5918 0 -2.959 -0.78125 -2.959 -2.6465 c0 -2.0215 1.6016 -2.6855 3.6719 -3.0469 l1.5234 -0.26367 c0.61523 -0.11719 0.87891 -0.41016 0.87891 -0.88867 c0 -1.3281 -0.99609 -1.7969 -2.0508 -1.7969 c-1.1133 0 -2.0313 0.49805 -2.1777 1.7676 l-1.6895 -0.3418 c0.3125 -1.9043 1.7285 -2.8125 3.9551 -2.8125 c1.9434 0 3.7695 0.77148 3.7695 3.3691 l0 3.916 c0 0.99609 0.2832 1.2402 0.9668 1.2402 l0.14648 0 l0 1.3184 l-0.9082 0 c-1.0156 0 -1.6797 -0.40039 -1.875 -1.2988 l-0.087891 0 c-0.77148 1.0645 -1.9824 1.4844 -3.1641 1.4844 z M166.337921875 18.6914 c1.6406 0 2.8223 -1.25 2.8223 -3.3008 l-2.5293 0.51758 c-1.2012 0.20508 -1.8555 0.60547 -1.8555 1.4844 c0 0.91797 0.69336 1.2988 1.5625 1.2988 z M175.224590625 8.193 c-0.66406 0 -1.2305 -0.54688 -1.2305 -1.2207 s0.56641 -1.2109 1.2305 -1.2109 c0.6543 0 1.2109 0.53711 1.2109 1.2109 s-0.55664 1.2207 -1.2109 1.2207 z M174.267590625 20 l0 -9.668 l1.8848 0 l0 9.668 l-1.8848 0 z M183.66213125 20.18555 c-2.8223 0 -4.9512 -1.9238 -4.9512 -5.0293 c0 -3.0957 2.1094 -5.0195 4.9512 -5.0195 s4.9414 1.9238 4.9414 5.0195 c0 3.1055 -2.1094 5.0293 -4.9414 5.0293 z M183.64253125 18.6426 c1.7676 0 3.1055 -1.3672 3.1055 -3.4863 c0 -2.1094 -1.3379 -3.4766 -3.1055 -3.4766 c-1.748 0 -3.0664 1.3672 -3.0664 3.4766 c0 2.1191 1.3184 3.4863 3.0664 3.4863 z M195.927721875 10.1367 c2.041 0 3.3887 1.1816 3.3887 3.3496 l0 6.5137 l-1.8848 0 l0 -6.0938 c0 -1.5918 -0.94727 -2.207 -2.041 -2.207 c-1.2891 0 -2.3438 0.78125 -2.3535 2.5879 l0 5.7129 l-1.875 0 l0 -9.668 l1.875 0 l0 1.1914 c0.625 -0.87891 1.6406 -1.3867 2.8906 -1.3867 z"></path></g></svg>